<svg width="445" height="820" viewBox="0 0 445 820" fill="none" xmlns="http://www.w3.org/2000/svg">
<rect width="445" height="820" rx="15" fill="url(#paint0_linear_44_1662)"/>
<path d="M140.472 128.17C140.472 139.605 142.724 150.928 147.1 161.492C151.476 172.057 157.89 181.656 165.976 189.741C174.061 197.827 183.66 204.241 194.225 208.617C204.789 212.993 216.112 215.245 227.547 215.245C238.982 215.245 250.305 212.993 260.87 208.617C271.434 204.241 281.033 197.827 289.119 189.741C297.205 181.656 303.618 172.057 307.994 161.492C312.37 150.928 314.623 139.605 314.623 128.17C314.623 116.735 312.37 105.412 307.994 94.8474C303.618 84.2829 297.205 74.6838 289.119 66.5981C281.033 58.5123 271.434 52.0984 260.87 47.7225C250.305 43.3465 238.982 41.0942 227.547 41.0942C216.112 41.0942 204.789 43.3465 194.225 47.7225C183.66 52.0984 174.061 58.5123 165.976 66.5981C157.89 74.6838 151.476 84.2829 147.1 94.8474C142.724 105.412 140.472 116.735 140.472 128.17Z" fill="#E3E3E3"/>
<path d="M165.915 128.17C165.915 136.526 167.561 144.801 170.759 152.521C173.957 160.241 178.644 167.256 184.552 173.165C190.461 179.073 197.476 183.76 205.196 186.958C212.916 190.156 221.191 191.802 229.547 191.802C237.903 191.802 246.178 190.156 253.898 186.958C261.618 183.76 268.633 179.073 274.542 173.165C280.451 167.256 285.138 160.241 288.335 152.521C291.533 144.801 293.179 136.526 293.179 128.17C293.179 111.294 286.475 95.1086 274.542 83.1752C262.608 71.2419 246.423 64.5378 229.547 64.5378C212.671 64.5378 196.486 71.2419 184.552 83.1752C172.619 95.1086 165.915 111.294 165.915 128.17Z" fill="white"/>
<path d="M186.01 128.17C186.01 139.717 190.597 150.791 198.761 158.956C206.926 167.121 218 171.708 229.547 171.708C241.094 171.708 252.168 167.121 260.333 158.956C268.498 150.791 273.085 139.717 273.085 128.17C273.085 122.452 271.959 116.791 269.771 111.509C267.583 106.226 264.376 101.427 260.333 97.384C256.29 93.3411 251.491 90.1342 246.208 87.9462C240.926 85.7582 235.265 84.6321 229.547 84.6321C223.83 84.6321 218.168 85.7582 212.886 87.9462C207.604 90.1342 202.804 93.3411 198.761 97.384C194.719 101.427 191.512 106.226 189.324 111.509C187.136 116.791 186.01 122.452 186.01 128.17Z" fill="#54E3E3"/>
<path d="M229.547 84.6321C220.936 84.6321 212.519 87.1855 205.359 91.9695C198.199 96.7535 192.619 103.553 189.323 111.509C186.028 119.464 185.166 128.218 186.846 136.664C188.526 145.109 192.672 152.867 198.761 158.956C204.85 165.045 212.608 169.191 221.053 170.871C229.499 172.551 238.253 171.689 246.208 168.393C254.164 165.098 260.963 159.518 265.747 152.358C270.531 145.198 273.085 136.781 273.085 128.17C273.085 116.623 268.498 105.549 260.333 97.384C252.168 89.2191 241.094 84.6321 229.547 84.6321ZM229.547 158.311C223.586 158.311 217.758 156.544 212.801 153.232C207.845 149.92 203.981 145.212 201.7 139.704C199.419 134.197 198.822 128.136 199.985 122.289C201.148 116.443 204.018 111.072 208.234 106.857C212.449 102.641 217.82 99.7705 223.667 98.6075C229.514 97.4445 235.574 98.0414 241.082 100.323C246.589 102.604 251.297 106.467 254.609 111.424C257.921 116.381 259.689 122.208 259.689 128.17C259.689 132.128 258.909 136.048 257.394 139.704C255.879 143.361 253.659 146.684 250.86 149.483C248.061 152.282 244.739 154.502 241.082 156.017C237.425 157.532 233.505 158.311 229.547 158.311Z" fill="#54E3E3"/>
<path d="M216.151 128.17C216.151 131.723 217.562 135.13 220.075 137.642C222.587 140.155 225.994 141.566 229.547 141.566C233.1 141.566 236.507 140.155 239.02 137.642C241.532 135.13 242.943 131.723 242.943 128.17C242.943 124.617 241.532 121.21 239.02 118.697C236.507 116.185 233.1 114.774 229.547 114.774C225.994 114.774 222.587 116.185 220.075 118.697C217.562 121.21 216.151 124.617 216.151 128.17Z" fill="#54E3E3"/>
<path d="M212.802 121.472C212.802 124.136 213.861 126.692 215.745 128.576C217.629 130.46 220.184 131.519 222.849 131.519C225.514 131.519 228.069 130.46 229.954 128.576C231.838 126.692 232.896 124.136 232.896 121.472C232.896 118.807 231.838 116.252 229.954 114.367C228.069 112.483 225.514 111.425 222.849 111.425C220.184 111.425 217.629 112.483 215.745 114.367C213.861 116.252 212.802 118.807 212.802 121.472Z" fill="white"/>
<path d="M236.245 138.217C236.245 139.105 236.598 139.957 237.226 140.585C237.854 141.213 238.706 141.566 239.594 141.566C240.483 141.566 241.335 141.213 241.963 140.585C242.591 139.957 242.943 139.105 242.943 138.217C242.943 137.329 242.591 136.477 241.963 135.849C241.335 135.221 240.483 134.868 239.594 134.868C238.706 134.868 237.854 135.221 237.226 135.849C236.598 136.477 236.245 137.329 236.245 138.217Z" fill="white"/>
<path d="M133.112 244.208C134.936 244.64 136.364 245.132 137.396 245.684C138.452 246.212 138.98 246.872 138.98 247.664C138.98 248.432 138.776 249.128 138.368 249.752C137.96 250.376 137.588 250.688 137.252 250.688C137.012 250.688 136.832 250.628 136.712 250.508C136.592 250.364 136.352 249.896 135.992 249.104C135.656 248.312 135.284 247.64 134.876 247.088C134.468 246.512 133.784 245.756 132.824 244.82L133.112 244.208ZM147.872 247.52H155.936L156.98 245.9C157.124 245.66 157.256 245.54 157.376 245.54C157.52 245.54 157.784 245.66 158.168 245.9C158.552 246.14 159.056 246.476 159.68 246.908C160.328 247.316 160.7 247.568 160.796 247.664C160.892 247.736 160.94 247.82 160.94 247.916C160.94 248.108 160.448 248.492 159.464 249.068V261.344C159.464 262.184 159.476 262.772 159.5 263.108L159.536 264.116C159.536 264.452 159.14 264.776 158.348 265.088C157.58 265.4 157.064 265.556 156.8 265.556C156.536 265.556 156.404 265.46 156.404 265.268V248.564H147.26V265.088C147.26 265.256 147.224 265.388 147.152 265.484C147.104 265.556 146.912 265.688 146.576 265.88C146.24 266.072 145.844 266.24 145.388 266.384C144.932 266.504 144.62 266.564 144.452 266.564C144.284 266.564 144.2 266.444 144.2 266.204L144.272 264.692C144.32 263.516 144.344 262.412 144.344 261.38V248.852C144.344 247.796 144.308 246.764 144.236 245.756C145.844 246.356 147.056 246.944 147.872 247.52ZM134.516 263.036C132.74 264.788 130.892 266.408 128.972 267.896L128.576 267.428C130.832 265.148 132.812 262.76 134.516 260.264C134.516 259.04 134.492 257.9 134.444 256.844L136.244 257.528C137.108 256.04 137.852 254.528 138.476 252.992H132.068C131.42 252.992 130.916 253.076 130.556 253.244L129.908 251.768C130.412 251.888 131.012 251.948 131.708 251.948H138.332L139.34 250.832C139.508 250.664 139.652 250.58 139.772 250.58C139.916 250.58 140.252 250.76 140.78 251.12C141.332 251.456 141.86 251.816 142.364 252.2C142.868 252.584 143.12 252.836 143.12 252.956C143.12 253.148 142.928 253.28 142.544 253.352C142.184 253.4 141.92 253.52 141.752 253.712C141.584 253.88 141.38 254.18 141.14 254.612C140.3 256.172 139.1 257.888 137.54 259.76C139.412 260.288 140.804 260.828 141.716 261.38C142.628 261.932 143.084 262.604 143.084 263.396C143.084 263.924 142.916 264.416 142.58 264.872C142.244 265.304 141.956 265.52 141.716 265.52C141.26 265.52 140.912 265.232 140.672 264.656C140.072 263.264 139.004 261.932 137.468 260.66V276.248C137.468 276.56 137.012 276.86 136.1 277.148C135.212 277.436 134.696 277.58 134.552 277.58C134.432 277.58 134.372 277.472 134.372 277.256L134.444 275.708C134.492 274.532 134.516 273.428 134.516 272.396V263.036ZM152.12 264.224C151.496 267.416 150.116 270.068 147.98 272.18C145.844 274.316 142.676 276.188 138.476 277.796L138.26 277.148C140.972 275.516 143.084 274.004 144.596 272.612C146.108 271.22 147.236 269.744 147.98 268.184C148.748 266.624 149.276 264.872 149.564 262.928C149.852 260.984 150.032 257.012 150.104 251.012C151.664 251.348 152.732 251.612 153.308 251.804C153.884 251.972 154.172 252.164 154.172 252.38C154.172 252.572 154.004 252.752 153.668 252.92C153.356 253.088 153.164 253.304 153.092 253.568C153.02 253.808 152.984 254.216 152.984 254.792C152.96 257.624 152.768 260.216 152.408 262.568C154.64 263.024 155.756 263.408 155.756 263.72C155.756 263.864 155.504 264.116 155 264.476V272.648C155 273.296 155.132 273.692 155.396 273.836C155.66 273.98 156.368 274.052 157.52 274.052C158.216 274.052 158.756 273.872 159.14 273.512C159.548 273.176 159.896 272.468 160.184 271.388C160.472 270.308 160.748 268.616 161.012 266.312H161.624C161.552 267.752 161.516 268.928 161.516 269.84C161.516 270.752 161.6 271.484 161.768 272.036C161.96 272.588 162.32 273.032 162.848 273.368C163.208 273.584 163.388 273.8 163.388 274.016C163.388 274.256 163.136 274.688 162.632 275.312C162.152 275.96 161.6 276.368 160.976 276.536C160.376 276.704 159.188 276.788 157.412 276.788C155.66 276.788 154.448 276.692 153.776 276.5C153.104 276.332 152.66 275.996 152.444 275.492C152.228 275.012 152.12 274.22 152.12 273.116V264.224ZM176.636 251.516H177.608L178.94 249.86C179.036 249.716 179.132 249.644 179.228 249.644C179.372 249.644 179.84 249.98 180.632 250.652C181.448 251.3 181.856 251.792 181.856 252.128C181.856 252.44 181.628 252.596 181.172 252.596H176.636V257.708H178.04L179.156 256.34C179.324 256.124 179.492 256.016 179.66 256.016C179.828 256.016 180.116 256.22 180.524 256.628C180.956 257.036 181.34 257.396 181.676 257.708C182.012 258.02 182.18 258.284 182.18 258.5C182.18 258.716 181.976 258.824 181.568 258.824H176.024V267.932C177.056 266.156 177.896 264.032 178.544 261.56C180.728 262.688 181.82 263.408 181.82 263.72C181.82 263.84 181.688 263.948 181.424 264.044C181.16 264.14 180.932 264.332 180.74 264.62C180.548 264.908 180.128 265.64 179.48 266.816C177.776 270.008 175.844 272.348 173.684 273.836C171.548 275.348 168.668 276.824 165.044 278.264L164.864 277.724C169.52 275.036 172.868 272.336 174.908 269.624C173.996 269.936 173.468 270.092 173.324 270.092C173.18 270.092 173.108 269.948 173.108 269.66L173.144 268.184C173.192 267.176 173.216 266.084 173.216 264.908V258.824H167.168C166.616 258.824 166.112 258.908 165.656 259.076L165.008 257.528C165.512 257.648 166.112 257.708 166.808 257.708H168.608V251.156C168.608 249.956 168.584 248.888 168.536 247.952C169.04 248.072 169.664 248.252 170.408 248.492C171.176 248.732 171.692 248.912 171.956 249.032C172.22 249.152 172.352 249.296 172.352 249.464C172.352 249.632 172.016 249.932 171.344 250.364V257.708H174.008V247.628C174.008 246.428 173.984 245.36 173.936 244.424C176.696 245.12 178.076 245.66 178.076 246.044C178.076 246.26 177.596 246.632 176.636 247.16V251.516ZM187.436 249.14H182.9C182.3 249.14 181.784 249.2 181.352 249.32L180.74 247.772C181.244 247.892 181.844 247.952 182.54 247.952H193.556L195.068 245.936C195.26 245.696 195.44 245.576 195.608 245.576C195.896 245.576 196.532 246.044 197.516 246.98C198.524 247.916 199.028 248.516 199.028 248.78C199.028 249.02 198.752 249.14 198.2 249.14H190.964C190.22 250.316 189.5 251.876 188.804 253.82H192.908L193.808 252.38C194 252.092 194.18 251.948 194.348 251.948C194.54 251.948 195.128 252.332 196.112 253.1C197.096 253.844 197.588 254.348 197.588 254.612C197.588 254.852 197.168 255.224 196.328 255.728V265.988C196.328 266.804 196.34 267.38 196.364 267.716L196.4 268.688C196.4 268.856 196.364 268.988 196.292 269.084C196.22 269.18 196.028 269.312 195.716 269.48C195.428 269.648 195.044 269.816 194.564 269.984C194.084 270.128 193.748 270.2 193.556 270.2C193.364 270.2 193.268 270.08 193.268 269.84V254.936H185.168V268.868C185.168 269.084 185.132 269.252 185.06 269.372C185.012 269.468 184.82 269.612 184.484 269.804C184.172 269.996 183.788 270.164 183.332 270.308C182.9 270.452 182.6 270.524 182.432 270.524C182.264 270.524 182.18 270.404 182.18 270.164L182.252 268.22C182.3 267.428 182.324 266.468 182.324 265.34V255.404C182.324 254.348 182.288 253.316 182.216 252.308C183.248 252.62 184.412 253.124 185.708 253.82H187.04C187.232 252.236 187.364 250.676 187.436 249.14ZM189.272 270.344C187.664 273.584 183.704 276.248 177.392 278.336L177.104 277.76C179.384 276.728 181.268 275.624 182.756 274.448C184.268 273.272 185.336 272.168 185.96 271.136C186.584 270.104 187.028 268.904 187.292 267.536C187.556 266.144 187.688 264.5 187.688 262.604C187.688 260.708 187.676 258.716 187.652 256.628C189.092 257.036 190.1 257.348 190.676 257.564C191.252 257.78 191.54 257.948 191.54 258.068C191.54 258.188 191.42 258.32 191.18 258.464C190.94 258.584 190.784 258.74 190.712 258.932C190.664 259.124 190.628 259.544 190.604 260.192C190.508 264.608 190.16 267.752 189.56 269.624C191.72 270.56 193.34 271.364 194.42 272.036C195.524 272.708 196.268 273.332 196.652 273.908C197.036 274.508 197.228 275.132 197.228 275.78C197.228 276.452 197.12 276.992 196.904 277.4C196.688 277.808 196.424 278.012 196.112 278.012C195.536 278.012 195.056 277.64 194.672 276.896C193.328 274.16 191.528 271.976 189.272 270.344ZM169.436 261.38C170.276 261.644 171.02 261.932 171.668 262.244C172.316 262.532 172.64 262.772 172.64 262.964C172.64 263.132 172.472 263.264 172.136 263.36C171.824 263.432 171.392 264.068 170.84 265.268C170.288 266.444 169.484 267.812 168.428 269.372C167.372 270.932 166.448 272.072 165.656 272.792L165.044 272.468C166.916 269.516 168.38 265.82 169.436 261.38ZM224.156 258.248V249.572H206.912C206.264 249.572 205.76 249.656 205.4 249.824L204.752 248.348C205.256 248.468 205.856 248.528 206.552 248.528H223.868L224.66 247.124C224.9 246.74 225.14 246.548 225.38 246.548C225.644 246.548 226.064 246.752 226.64 247.16L228.296 248.312C228.8 248.672 229.052 249.008 229.052 249.32C229.052 249.608 228.572 249.92 227.612 250.256V258.14C227.612 258.812 227.624 259.304 227.648 259.616L227.684 260.516C227.684 260.756 227.552 260.972 227.288 261.164C227.048 261.356 226.544 261.596 225.776 261.884C225.008 262.172 224.54 262.316 224.372 262.316C224.228 262.316 224.156 262.148 224.156 261.812V259.544H209.216V271.172C209.216 271.892 209.384 272.372 209.72 272.612C210.056 272.876 211.28 273.056 213.392 273.152C215.504 273.272 217.532 273.332 219.476 273.332C221.444 273.332 223.268 273.296 224.948 273.224C226.628 273.152 227.636 273.056 227.972 272.936C228.332 272.84 228.632 272.624 228.872 272.288C229.136 271.976 229.364 271.508 229.556 270.884C229.748 270.236 229.916 269.396 230.06 268.364C230.228 267.308 230.408 265.892 230.6 264.116H231.572C231.5 266.372 231.572 268.148 231.788 269.444C232.028 270.716 232.508 271.544 233.228 271.928C233.66 272.12 233.876 272.336 233.876 272.576C233.876 272.816 233.576 273.356 232.976 274.196C232.376 275.036 231.68 275.576 230.888 275.816C230.12 276.08 228.524 276.236 226.1 276.284C223.7 276.332 220.724 276.356 217.172 276.356C213.62 276.356 211.208 276.26 209.936 276.068C208.664 275.876 207.656 275.54 206.912 275.06C206.192 274.58 205.832 273.548 205.832 271.964V257.6C205.832 255.968 205.796 254.624 205.724 253.568C207.404 253.904 208.64 254.192 209.432 254.432C210.224 254.648 210.62 254.84 210.62 255.008C210.62 255.224 210.152 255.548 209.216 255.98V258.248H224.156ZM258.212 249.752C258.164 249.608 258.056 249.296 257.888 248.816C257.744 248.336 257.564 247.892 257.348 247.484C257.156 247.076 256.868 246.668 256.484 246.26C256.124 245.828 255.62 245.312 254.972 244.712L255.26 244.208C256.892 244.64 258.104 245.024 258.896 245.36C259.712 245.696 260.264 246.056 260.552 246.44C260.84 246.8 260.984 247.292 260.984 247.916C260.984 248.516 260.66 249.128 260.012 249.752H264.152L265.376 248.06C265.64 247.7 265.88 247.52 266.096 247.52C266.336 247.52 266.924 247.94 267.86 248.78C268.796 249.62 269.264 250.172 269.264 250.436C269.264 250.7 268.988 250.832 268.436 250.832H251.66C251.012 250.832 250.508 250.916 250.148 251.084L249.5 249.572C250.004 249.692 250.604 249.752 251.3 249.752H258.212ZM242.984 254.9H239.672C239.072 254.9 238.556 254.96 238.124 255.08L237.512 253.46C238.016 253.58 238.616 253.64 239.312 253.64H242.984V248.132C242.984 246.74 242.96 245.444 242.912 244.244C244.04 244.484 244.988 244.748 245.756 245.036C246.548 245.3 246.944 245.516 246.944 245.684C246.944 245.828 246.584 246.08 245.864 246.44V253.64H246.692L247.7 252.164C247.892 251.876 248.096 251.732 248.312 251.732C248.528 251.732 249.044 252.14 249.86 252.956C250.7 253.748 251.12 254.276 251.12 254.54C251.12 254.78 250.832 254.9 250.256 254.9H245.864V260.732L249.788 259.364L250.148 259.94L245.864 262.46V273.872C245.864 274.688 245.756 275.3 245.54 275.708C245.348 276.116 244.808 276.56 243.92 277.04C243.056 277.544 242.516 277.796 242.3 277.796C242.084 277.796 241.892 277.58 241.724 277.148C241.388 276.236 240.872 275.576 240.176 275.168C239.48 274.76 238.676 274.436 237.764 274.196L237.944 273.476C239.792 273.764 241.016 273.908 241.616 273.908C242.216 273.908 242.588 273.812 242.732 273.62C242.9 273.428 242.984 273.068 242.984 272.54V264.188C241.328 265.172 240.164 265.94 239.492 266.492C239.324 266.636 239.18 266.708 239.06 266.708C238.772 266.708 238.028 265.64 236.828 263.504C238.844 263 240.896 262.412 242.984 261.74V254.9ZM259.472 257.78C260.744 255.356 261.596 253.148 262.028 251.156C264.596 251.924 265.88 252.488 265.88 252.848C265.88 253.016 265.712 253.124 265.376 253.172C265.064 253.196 264.824 253.28 264.656 253.424C264.488 253.544 264.26 253.796 263.972 254.18C262.892 255.572 261.812 256.772 260.732 257.78H265.664L267.104 255.764C267.296 255.5 267.488 255.368 267.68 255.368C267.872 255.368 268.448 255.8 269.408 256.664C270.368 257.528 270.848 258.092 270.848 258.356C270.848 258.62 270.584 258.752 270.056 258.752H249.788C249.14 258.752 248.636 258.836 248.276 259.004L247.628 257.6C248.132 257.72 248.732 257.78 249.428 257.78H259.472ZM252.596 251.3C254.348 252.14 255.5 252.824 256.052 253.352C256.628 253.88 256.916 254.444 256.916 255.044C256.916 255.644 256.724 256.196 256.34 256.7C255.956 257.204 255.608 257.456 255.296 257.456C255.008 257.456 254.804 257.384 254.684 257.24C254.588 257.072 254.492 256.724 254.396 256.196C254.156 254.78 253.436 253.292 252.236 251.732L252.596 251.3ZM253.892 264.692H250.436C249.788 264.692 249.284 264.776 248.924 264.944L248.168 263.396C248.672 263.516 249.272 263.576 249.968 263.576H254.396C254.924 262.424 255.512 260.84 256.16 258.824C258.752 259.424 260.048 259.928 260.048 260.336C260.048 260.552 259.832 260.708 259.4 260.804C259.16 260.852 258.932 261.032 258.716 261.344C258.5 261.656 258.08 262.4 257.456 263.576H265.736L266.78 261.884C267.044 261.452 267.284 261.236 267.5 261.236C267.74 261.236 268.328 261.692 269.264 262.604C270.224 263.492 270.704 264.068 270.704 264.332C270.704 264.572 270.488 264.692 270.056 264.692H265.016C263.864 267.356 262.724 269.396 261.596 270.812C264.068 271.532 265.712 272.216 266.528 272.864C267.344 273.512 267.752 274.376 267.752 275.456C267.752 276.224 267.68 276.752 267.536 277.04C267.416 277.328 267.212 277.472 266.924 277.472C266.636 277.472 266.288 277.292 265.88 276.932C263.336 274.7 261.332 273.224 259.868 272.504C256.796 275 252.164 276.752 245.972 277.76L245.792 277.076C250.712 275.708 254.588 273.824 257.42 271.424C255.692 270.824 253.496 270.296 250.832 269.84C252.032 268.16 253.052 266.444 253.892 264.692ZM261.776 264.692H256.844C256.076 266.036 255.164 267.488 254.108 269.048C255.452 269.312 257.024 269.66 258.824 270.092C260.096 268.7 261.08 266.9 261.776 264.692ZM294.248 250.904L297.2 247.988H284.708C284.252 247.988 283.82 248.072 283.412 248.24L282.476 246.8C283.052 246.848 283.652 246.872 284.276 246.872H297.668L299.468 245.324C299.66 245.18 299.816 245.108 299.936 245.108C300.152 245.108 300.716 245.528 301.628 246.368C302.564 247.208 303.032 247.748 303.032 247.988C303.032 248.204 302.756 248.336 302.204 248.384C301.676 248.432 301.232 248.528 300.872 248.672C300.536 248.792 299.624 249.212 298.136 249.932C296.648 250.652 295.616 251.156 295.04 251.444C295.472 251.828 295.688 252.248 295.688 252.704C295.688 253.16 295.496 253.52 295.112 253.784H298.82L299.504 252.74C299.648 252.524 299.804 252.416 299.972 252.416C300.164 252.416 300.8 252.716 301.88 253.316C302.984 253.916 303.536 254.336 303.536 254.576C303.536 254.816 303.092 255.176 302.204 255.656V269.084C302.204 270.044 302.108 270.728 301.916 271.136C301.724 271.544 301.208 271.976 300.368 272.432C299.528 272.888 298.988 273.116 298.748 273.116C298.508 273.116 298.352 272.936 298.28 272.576C298.16 272 297.836 271.508 297.308 271.1C296.804 270.668 296.06 270.26 295.076 269.876L295.256 269.192C296.696 269.456 297.644 269.588 298.1 269.588C298.556 269.588 298.844 269.504 298.964 269.336C299.084 269.168 299.144 268.856 299.144 268.4V265.448H294.392V267.284C294.392 268.508 294.404 269.348 294.428 269.804L294.464 271.1C294.464 271.412 294.092 271.7 293.348 271.964C292.604 272.228 292.1 272.36 291.836 272.36C291.572 272.36 291.44 272.24 291.44 272L291.512 270.524C291.536 269.516 291.548 268.412 291.548 267.212V265.448H287.264V270.884C287.264 271.148 287.156 271.364 286.94 271.532C286.724 271.7 286.34 271.868 285.788 272.036C285.26 272.228 284.84 272.324 284.528 272.324C284.36 272.324 284.276 272.204 284.276 271.964L284.456 268.58C284.528 267.164 284.564 265.772 284.564 264.404V255.368C284.564 254.192 284.54 253.124 284.492 252.164C285.812 252.62 286.832 253.16 287.552 253.784H293.06C292.556 252.752 290.732 251.504 287.588 250.04L287.696 249.428C290.84 249.74 293.024 250.232 294.248 250.904ZM294.392 258.896H299.144V254.864H294.392V258.896ZM287.264 258.896H291.548V254.864H287.264V258.896ZM299.144 259.976H294.392V264.224H299.144V259.976ZM291.548 259.976H287.264V264.224H291.548V259.976ZM275.42 245.36C277.34 246.296 278.828 247.196 279.884 248.06C280.94 248.9 281.468 249.728 281.468 250.544C281.468 251.36 281.228 252.152 280.748 252.92C280.268 253.688 279.848 254.072 279.488 254.072C279.248 254.072 279.056 253.976 278.912 253.784C278.792 253.592 278.66 253.208 278.516 252.632C277.988 250.328 276.848 248.048 275.096 245.792L275.42 245.36ZM277.652 271.064V259.904H275.204C274.556 259.904 274.052 259.988 273.692 260.156L273.044 258.68C273.548 258.8 274.148 258.86 274.844 258.86H277.292L278.192 257.42C278.336 257.228 278.468 257.132 278.588 257.132C278.732 257.132 279.212 257.42 280.028 257.996C280.844 258.548 281.372 258.92 281.612 259.112C281.876 259.304 282.008 259.46 282.008 259.58C282.008 259.772 281.504 260.12 280.496 260.624V270.848C280.712 270.992 280.94 271.172 281.18 271.388C282.404 272.588 283.64 273.344 284.888 273.656C286.136 273.968 288.716 274.124 292.628 274.124C296.54 274.124 301.316 273.968 306.956 273.656L307.064 274.376C306.008 274.52 305.144 274.772 304.472 275.132C303.8 275.516 303.344 276.092 303.104 276.86C303.032 277.1 302.924 277.244 302.78 277.292C302.66 277.34 302.432 277.364 302.096 277.364C299.744 277.364 296.804 277.292 293.276 277.148C289.748 277.004 287.444 276.824 286.364 276.608C285.308 276.416 284.36 276.02 283.52 275.42C282.704 274.844 281.636 273.812 280.316 272.324C279.884 271.844 279.536 271.604 279.272 271.604C278.84 271.604 278.084 272.312 277.004 273.728C275.948 275.168 275.276 276.152 274.988 276.68C274.868 276.896 274.736 277.004 274.592 277.004C274.448 277.004 274.244 276.812 273.98 276.428C273.716 276.044 273.224 274.988 272.504 273.26C274.76 272.204 276.476 271.472 277.652 271.064ZM319.052 248.24L317.612 263.72H316.028L314.516 248.24C314.468 247.736 314.672 247.244 315.128 246.764C315.608 246.26 316.16 246.008 316.784 246.008C317.432 246.008 317.984 246.248 318.44 246.728C318.896 247.184 319.1 247.688 319.052 248.24ZM316.892 266.816C317.516 266.816 318.032 267.032 318.44 267.464C318.872 267.872 319.088 268.4 319.088 269.048C319.088 269.696 318.86 270.236 318.404 270.668C317.972 271.076 317.432 271.28 316.784 271.28C316.136 271.28 315.608 271.064 315.2 270.632C314.792 270.176 314.588 269.636 314.588 269.012C314.588 268.364 314.804 267.836 315.236 267.428C315.692 267.02 316.244 266.816 316.892 266.816Z" fill="black"/>
<defs>
<linearGradient id="paint0_linear_44_1662" x1="222.5" y1="0" x2="222.5" y2="820" gradientUnits="userSpaceOnUse">
<stop stop-color="#9BDAF4"/>
<stop offset="1" stop-color="#EAF6F9"/>
</linearGradient>
</defs>
</svg>
