<svg width="445" height="714" viewBox="0 0 445 714" fill="none" xmlns="http://www.w3.org/2000/svg">
<rect width="445" height="714" rx="15" fill="url(#paint0_linear_44_1662)"/>
<path d="M140.472 217.17C140.472 228.605 142.724 239.928 147.1 250.492C151.476 261.057 157.89 270.656 165.976 278.741C174.061 286.827 183.66 293.241 194.225 297.617C204.789 301.993 216.112 304.245 227.547 304.245C238.982 304.245 250.305 301.993 260.87 297.617C271.434 293.241 281.033 286.827 289.119 278.741C297.205 270.656 303.618 261.057 307.994 250.492C312.37 239.928 314.623 228.605 314.623 217.17C314.623 205.735 312.37 194.412 307.994 183.847C303.618 173.283 297.205 163.684 289.119 155.598C281.033 147.512 271.434 141.098 260.87 136.722C250.305 132.347 238.982 130.094 227.547 130.094C216.112 130.094 204.789 132.347 194.225 136.722C183.66 141.098 174.061 147.512 165.976 155.598C157.89 163.684 151.476 173.283 147.1 183.847C142.724 194.412 140.472 205.735 140.472 217.17Z" fill="#E3E3E3"/>
<path d="M165.915 217.17C165.915 225.526 167.561 233.801 170.759 241.521C173.957 249.241 178.644 256.256 184.552 262.165C190.461 268.073 197.476 272.76 205.196 275.958C212.916 279.156 221.191 280.802 229.547 280.802C237.903 280.802 246.178 279.156 253.898 275.958C261.618 272.76 268.633 268.073 274.542 262.165C280.451 256.256 285.138 249.241 288.335 241.521C291.533 233.801 293.179 225.526 293.179 217.17C293.179 200.294 286.475 184.109 274.542 172.175C262.608 160.242 246.423 153.538 229.547 153.538C212.671 153.538 196.486 160.242 184.552 172.175C172.619 184.109 165.915 200.294 165.915 217.17Z" fill="white"/>
<path d="M186.01 217.17C186.01 228.717 190.597 239.791 198.761 247.956C206.926 256.121 218 260.708 229.547 260.708C241.094 260.708 252.168 256.121 260.333 247.956C268.498 239.791 273.085 228.717 273.085 217.17C273.085 211.452 271.959 205.791 269.771 200.509C267.583 195.226 264.376 190.427 260.333 186.384C256.29 182.341 251.491 179.134 246.208 176.946C240.926 174.758 235.265 173.632 229.547 173.632C223.83 173.632 218.168 174.758 212.886 176.946C207.604 179.134 202.804 182.341 198.761 186.384C194.719 190.427 191.512 195.226 189.324 200.509C187.136 205.791 186.01 211.452 186.01 217.17Z" fill="#54E3E3"/>
<path d="M229.547 173.632C220.936 173.632 212.519 176.186 205.359 180.97C198.199 185.753 192.619 192.553 189.323 200.509C186.028 208.464 185.166 217.218 186.846 225.664C188.526 234.109 192.672 241.867 198.761 247.956C204.85 254.045 212.608 258.191 221.053 259.871C229.499 261.551 238.253 260.689 246.208 257.393C254.164 254.098 260.963 248.518 265.747 241.358C270.531 234.198 273.085 225.781 273.085 217.17C273.085 205.623 268.498 194.549 260.333 186.384C252.168 178.219 241.094 173.632 229.547 173.632ZM229.547 247.311C223.586 247.311 217.758 245.544 212.801 242.232C207.845 238.92 203.981 234.212 201.7 228.704C199.419 223.197 198.822 217.136 199.985 211.289C201.148 205.443 204.018 200.072 208.234 195.857C212.449 191.641 217.82 188.77 223.667 187.607C229.514 186.444 235.574 187.041 241.082 189.323C246.589 191.604 251.297 195.467 254.609 200.424C257.921 205.381 259.689 211.208 259.689 217.17C259.689 221.128 258.909 225.048 257.394 228.704C255.879 232.361 253.659 235.684 250.86 238.483C248.061 241.282 244.739 243.502 241.082 245.017C237.425 246.532 233.505 247.311 229.547 247.311Z" fill="#54E3E3"/>
<path d="M216.151 217.17C216.151 220.723 217.562 224.13 220.075 226.642C222.587 229.155 225.994 230.566 229.547 230.566C233.1 230.566 236.507 229.155 239.02 226.642C241.532 224.13 242.943 220.723 242.943 217.17C242.943 213.617 241.532 210.21 239.02 207.697C236.507 205.185 233.1 203.774 229.547 203.774C225.994 203.774 222.587 205.185 220.075 207.697C217.562 210.21 216.151 213.617 216.151 217.17Z" fill="#54E3E3"/>
<path d="M212.802 210.472C212.802 213.136 213.861 215.692 215.745 217.576C217.629 219.46 220.184 220.519 222.849 220.519C225.514 220.519 228.069 219.46 229.954 217.576C231.838 215.692 232.896 213.136 232.896 210.472C232.896 207.807 231.838 205.252 229.954 203.367C228.069 201.483 225.514 200.425 222.849 200.425C220.184 200.425 217.629 201.483 215.745 203.367C213.861 205.252 212.802 207.807 212.802 210.472Z" fill="white"/>
<path d="M236.245 227.217C236.245 228.105 236.598 228.957 237.226 229.585C237.854 230.213 238.706 230.566 239.594 230.566C240.483 230.566 241.335 230.213 241.963 229.585C242.591 228.957 242.943 228.105 242.943 227.217C242.943 226.329 242.591 225.477 241.963 224.849C241.335 224.221 240.483 223.868 239.594 223.868C238.706 223.868 237.854 224.221 237.226 224.849C236.598 225.477 236.245 226.329 236.245 227.217Z" fill="white"/>
<defs>
<linearGradient id="paint0_linear_44_1662" x1="222.5" y1="0" x2="222.5" y2="714" gradientUnits="userSpaceOnUse">
<stop stop-color="#9BDAF4"/>
<stop offset="1" stop-color="#EAF6F9"/>
</linearGradient>
</defs>
</svg>
